<svg xmlns="http://www.w3.org/2000/svg" xmlns:xlink="http://www.w3.org/1999/xlink" width="24" height="24" x="0" y="0" version="1.1" viewBox="0 0 24 24" xml:space="preserve"><title>barcode qr</title><g fill="#fff" class="nc-icon-wrapper"><path fill="#fff" d="M11,11H0V0h11V11z M2,9h7V2H2V9z"/><path fill="#fff" d="M24,11H13V0h11V11z M15,9h7V2h-7V9z"/><path fill="#fff" d="M11,24H0V13h11V24z M2,22h7v-7H2V22z"/><polygon fill="#fff" points="24 20 22 20 22 15 20 15 20 18 14 18 14 13 16 13 16 16 18 16 18 13 24 13"/><polygon fill="#fff" points="24 24 14 24 14 20 16 20 16 22 24 22"/><rect width="3" height="3" x="4" y="4" data-color="color-2"/><rect width="3" height="3" x="17" y="4" data-color="color-2"/><rect width="3" height="3" x="4" y="17" data-color="color-2"/></g></svg>