<svg xmlns="http://www.w3.org/2000/svg" xmlns:xlink="http://www.w3.org/1999/xlink" width="141" height="107" version="1.1" viewBox="0 0 141 107"><title>QUANTUM</title><desc>Created with Sketch.</desc><g id="Accelerator-Website" fill="none" fill-rule="evenodd" stroke="none" stroke-width="1"><g id="HOME" fill="#FFF" transform="translate(-355.000000, -620.000000)"><g id="Accelerators" transform="translate(133.000000, 571.000000)"><g id="QUANTUM" transform="translate(222.000000, 49.000000)"><path id="Fill-4" d="M39.1476,94.3073 C39.1476,99.9573 35.8806,103.1433 30.6596,103.1433 C25.4646,103.1433 22.1986,99.9573 22.1986,94.3073 L22.1986,84.5873 L26.7506,84.5873 L26.7506,94.3883 C26.7506,97.1723 28.2766,98.9123 30.6596,98.9123 C33.0436,98.9123 34.5956,97.1723 34.5956,94.3883 L34.5956,84.5873 L39.1476,84.5873 L39.1476,94.3073 Z"/><path id="Fill-6" d="M52.5363,95.8874 L50.1533,89.7554 L47.7693,95.8874 L52.5363,95.8874 Z M54.0093,99.6624 L46.2973,99.6624 L45.0923,102.7954 L40.2723,102.7954 L48.0113,84.5874 L52.3493,84.5874 L60.0593,102.7954 L55.2403,102.7954 L54.0093,99.6624 Z"/><polygon id="Fill-8" points="79.313 84.588 79.313 102.796 75.833 102.796 67.103 92.809 67.103 102.796 62.578 102.796 62.578 84.588 66.032 84.588 74.815 94.843 74.815 84.588"/><polygon id="Fill-10" points="98.057 88.632 92.246 88.632 92.246 102.796 87.748 102.796 87.748 88.632 81.938 88.632 81.938 84.588 98.057 84.588"/><polygon id="Fill-14" points="140.524 102.796 136 102.796 136 93.665 131.957 99.904 131.957 99.931 129.439 99.931 129.439 99.904 125.37 93.611 125.395 102.796 120.871 102.796 120.871 84.588 124.246 84.588 130.697 94.308 137.15 84.588 140.524 84.588"/><path id="Fill-12" d="M117.3361,94.3073 C117.3361,99.9573 114.0691,103.1433 108.8481,103.1433 C103.6531,103.1433 100.3871,99.9573 100.3871,94.3073 L100.3871,84.5873 L104.9391,84.5873 L104.9391,94.3883 C104.9391,97.1723 106.4651,98.9123 108.8481,98.9123 C111.2311,98.9123 112.7841,97.1723 112.7841,94.3883 L112.7841,84.5873 L117.3361,84.5873 L117.3361,94.3073 Z"/><path id="Fill-1" d="M9.6398,98.9128 C12.5848,98.9128 14.7008,96.5568 14.7008,93.6908 C14.7008,90.8258 12.5848,88.4708 9.6398,88.4708 C6.6948,88.4708 4.5788,90.8258 4.5788,93.6908 C4.5788,96.5568 6.6948,98.9128 9.6398,98.9128 M16.1998,100.7068 L19.0648,104.1068 L15.8778,107.0258 L12.2898,102.7958 C11.4598,103.0368 10.5498,103.1428 9.6398,103.1428 C4.1508,103.1428 -0.0002,98.9928 -0.0002,93.6908 C-0.0002,88.3908 4.1508,84.2398 9.6398,84.2398 C15.1288,84.2398 19.2788,88.3908 19.2788,93.6908 C19.2788,96.5028 18.1008,98.9928 16.1998,100.7068"/><path id="Fill-17" d="M70.2619,23.7536 C66.3859,23.7536 63.2439,26.8956 63.2439,30.7716 C63.2439,34.6476 66.3859,37.7886 70.2619,37.7886 C74.1379,37.7886 77.2809,34.6476 77.2809,30.7716 C77.2809,26.8956 74.1379,23.7536 70.2619,23.7536"/><path id="Fill-19" d="M70.2619,45.3474 C62.0759,45.3474 55.4159,38.6874 55.4159,30.5014 C55.4159,22.3154 62.0759,15.6564 70.2619,15.6564 C78.4489,15.6564 85.1089,22.3154 85.1089,30.5014 C85.1089,38.6874 78.4489,45.3474 70.2619,45.3474 M70.2619,11.3364 C59.6949,11.3364 51.0979,19.9344 51.0979,30.5014 C51.0979,41.0694 59.6949,49.6654 70.2619,49.6654 C80.8289,49.6654 89.4269,41.0694 89.4269,30.5014 C89.4269,19.9344 80.8289,11.3364 70.2619,11.3364"/><path id="Fill-21" d="M57.3966,7.7106 C61.1996,5.5556 65.5876,4.3186 70.2616,4.3186 C74.9356,4.3186 79.3136,5.5686 83.1146,7.7246 L86.2706,4.5666 C81.6136,1.6806 76.1336,-0.0004 70.2616,-0.0004 C64.3906,-0.0004 58.9106,1.6796 54.2526,4.5666 L57.3966,7.7106 Z"/><path id="Fill-24" d="M47.1134,43.3669 C44.9584,39.5639 43.7214,35.1759 43.7214,30.5009 C43.7214,25.8279 44.9714,21.4499 47.1274,17.6489 L43.9704,14.4919 C41.0844,19.1499 39.4024,24.6299 39.4024,30.5009 C39.4024,36.3729 41.0824,41.8529 43.9694,46.5109 L47.1134,43.3669 Z"/><path id="Fill-26" d="M93.4113,17.6354 C95.5663,21.4384 96.8033,25.8264 96.8033,30.5014 C96.8033,35.1744 95.5533,39.5524 93.3963,43.3534 L96.5543,46.5104 C99.4403,41.8524 101.1213,36.3724 101.1213,30.5014 C101.1213,24.6294 99.4413,19.1504 96.5543,14.4914 L93.4113,17.6354 Z"/><path id="Fill-28" d="M83.1281,54.0085 C79.3251,56.1625 74.9371,57.4005 70.2621,57.4005 C65.5891,57.4005 61.2111,56.1495 57.4101,53.9935 L54.2531,57.1515 C58.9111,60.0375 64.3911,61.7185 70.2621,61.7185 C76.1331,61.7185 81.6131,60.0385 86.2711,57.1515 L83.1281,54.0085 Z"/></g></g></g></g></svg>